# xmcd
#
# Track frame offsets: 
#        150
#        12177
#        23395
#        39040
#        51062
#        62297
#        76057
#        87345
#        103465
#        116500
#
# Disc length: 1732 seconds
#
# Revision: 1
# Processed by: cddbd v1.4PL0 Copyright (c) Steve Scherf et al.
# Submitted via: ExactAudioCopy v0.95a3
#
DISCID=6406c20a
DTITLE=George Strait - Strait from the Heart
DYEAR=1982
DGENRE=Country
TTITLE0=Fool Hearted Memory
TTITLE1=Honky Tonk Crazy
TTITLE2=The Only Thing I Have Left
TTITLE3=The Steal Of The Night
TTITLE4=I Can't See Texas From Here
TTITLE5=Marina Del Ray
TTITLE6=Lover In Disguise
TTITLE7=Heartbroke
TTITLE8=Amarillo By Morning
TTITLE9=A Fire I Can't Put Out
EXTD=
EXTT0=
EXTT1=
EXTT2=
EXTT3=
EXTT4=
EXTT5=
EXTT6=
EXTT7=
EXTT8=
EXTT9=
PLAYORDER=
